solid STL generated by MeshLab
  facet normal -1.000000e+00  0.000000e+00  0.000000e+00
    outer loop
      vertex  -3.000000e+01 -3.000000e+01 -6.000000e+00
      vertex  -3.000000e+01 -3.000000e+01  6.000000e+00
      vertex  -3.000000e+01  3.000000e+01  6.000000e+00
    endloop
  endfacet
  facet normal -1.000000e+00  0.000000e+00  0.000000e+00
    outer loop
      vertex  -3.000000e+01 -3.000000e+01 -6.000000e+00
      vertex  -3.000000e+01  3.000000e+01  6.000000e+00
      vertex  -3.000000e+01  3.000000e+01 -6.000000e+00
    endloop
  endfacet
  facet normal  0.000000e+00  1.000000e+00  0.000000e+00
    outer loop
      vertex  -3.000000e+01  3.000000e+01 -6.000000e+00
      vertex  -3.000000e+01  3.000000e+01  6.000000e+00
      vertex   3.000000e+01  3.000000e+01  6.000000e+00
    endloop
  endfacet
  facet normal  0.000000e+00  1.000000e+00  0.000000e+00
    outer loop
      vertex  -3.000000e+01  3.000000e+01 -6.000000e+00
      vertex   3.000000e+01  3.000000e+01  6.000000e+00
      vertex   3.000000e+01  3.000000e+01 -6.000000e+00
    endloop
  endfacet
  facet normal  1.000000e+00  0.000000e+00 -0.000000e+00
    outer loop
      vertex   3.000000e+01  3.000000e+01 -6.000000e+00
      vertex   3.000000e+01  3.000000e+01  6.000000e+00
      vertex   3.000000e+01 -3.000000e+01  6.000000e+00
    endloop
  endfacet
  facet normal  1.000000e+00  0.000000e+00  0.000000e+00
    outer loop
      vertex   3.000000e+01  3.000000e+01 -6.000000e+00
      vertex   3.000000e+01 -3.000000e+01  6.000000e+00
      vertex   3.000000e+01 -3.000000e+01 -6.000000e+00
    endloop
  endfacet
  facet normal  0.000000e+00 -1.000000e+00  0.000000e+00
    outer loop
      vertex   3.000000e+01 -3.000000e+01 -6.000000e+00
      vertex   3.000000e+01 -3.000000e+01  6.000000e+00
      vertex  -3.000000e+01 -3.000000e+01  6.000000e+00
    endloop
  endfacet
  facet normal  0.000000e+00 -1.000000e+00  0.000000e+00
    outer loop
      vertex   3.000000e+01 -3.000000e+01 -6.000000e+00
      vertex  -3.000000e+01 -3.000000e+01  6.000000e+00
      vertex  -3.000000e+01 -3.000000e+01 -6.000000e+00
    endloop
  endfacet
  facet normal  0.000000e+00  0.000000e+00 -1.000000e+00
    outer loop
      vertex   3.000000e+01  3.000000e+01 -6.000000e+00
      vertex   1.500000e+01  0.000000e+00 -6.000000e+00
      vertex   1.471179e+01  2.926350e+00 -6.000000e+00
    endloop
  endfacet
  facet normal  0.000000e+00  0.000000e+00 -1.000000e+00
    outer loop
      vertex   3.000000e+01  3.000000e+01 -6.000000e+00
      vertex   1.471179e+01  2.926350e+00 -6.000000e+00
      vertex   1.385820e+01  5.740260e+00 -6.000000e+00
    endloop
  endfacet
  facet normal -0.000000e+00  0.000000e+00 -1.000000e+00
    outer loop
      vertex  -1.471179e+01  2.926380e+00 -6.000000e+00
      vertex  -1.500000e+01  0.000000e+00 -6.000000e+00
      vertex  -3.000000e+01  3.000000e+01 -6.000000e+00
    endloop
  endfacet
  facet normal -0.000000e+00  0.000000e+00 -1.000000e+00
    outer loop
      vertex  -1.385820e+01  5.740260e+00 -6.000000e+00
      vertex  -1.471179e+01  2.926380e+00 -6.000000e+00
      vertex  -3.000000e+01  3.000000e+01 -6.000000e+00
    endloop
  endfacet
  facet normal  0.000000e+00  0.000000e+00 -1.000000e+00
    outer loop
      vertex   3.000000e+01  3.000000e+01 -6.000000e+00
      vertex   1.385820e+01  5.740260e+00 -6.000000e+00
      vertex   1.247205e+01  8.333550e+00 -6.000000e+00
    endloop
  endfacet
  facet normal  0.000000e+00  0.000000e+00 -1.000000e+00
    outer loop
      vertex   3.000000e+01  3.000000e+01 -6.000000e+00
      vertex   1.247205e+01  8.333550e+00 -6.000000e+00
      vertex   1.060659e+01  1.060659e+01 -6.000000e+00
    endloop
  endfacet
  facet normal -0.000000e+00  0.000000e+00 -1.000000e+00
    outer loop
      vertex  -1.247202e+01  8.333579e+00 -6.000000e+00
      vertex  -1.385820e+01  5.740260e+00 -6.000000e+00
      vertex  -3.000000e+01  3.000000e+01 -6.000000e+00
    endloop
  endfacet
  facet normal -0.000000e+00  0.000000e+00 -1.000000e+00
    outer loop
      vertex  -1.060659e+01  1.060662e+01 -6.000000e+00
      vertex  -1.247202e+01  8.333579e+00 -6.000000e+00
      vertex  -3.000000e+01  3.000000e+01 -6.000000e+00
    endloop
  endfacet
  facet normal  0.000000e+00  0.000000e+00 -1.000000e+00
    outer loop
      vertex   3.000000e+01  3.000000e+01 -6.000000e+00
      vertex   1.060659e+01  1.060659e+01 -6.000000e+00
      vertex   8.333550e+00  1.247205e+01 -6.000000e+00
    endloop
  endfacet
  facet normal  0.000000e+00  0.000000e+00 -1.000000e+00
    outer loop
      vertex   3.000000e+01  3.000000e+01 -6.000000e+00
      vertex   8.333550e+00  1.247205e+01 -6.000000e+00
      vertex   5.740260e+00  1.385820e+01 -6.000000e+00
    endloop
  endfacet
  facet normal -0.000000e+00  0.000000e+00 -1.000000e+00
    outer loop
      vertex  -8.333550e+00  1.247205e+01 -6.000000e+00
      vertex  -1.060659e+01  1.060662e+01 -6.000000e+00
      vertex  -3.000000e+01  3.000000e+01 -6.000000e+00
    endloop
  endfacet
  facet normal -0.000000e+00  0.000000e+00 -1.000000e+00
    outer loop
      vertex  -5.740230e+00  1.385820e+01 -6.000000e+00
      vertex  -8.333550e+00  1.247205e+01 -6.000000e+00
      vertex  -3.000000e+01  3.000000e+01 -6.000000e+00
    endloop
  endfacet
  facet normal  0.000000e+00  0.000000e+00 -1.000000e+00
    outer loop
      vertex  -3.000000e+01  3.000000e+01 -6.000000e+00
      vertex   3.000000e+01  3.000000e+01 -6.000000e+00
      vertex   5.740260e+00  1.385820e+01 -6.000000e+00
    endloop
  endfacet
  facet normal  0.000000e+00  0.000000e+00 -1.000000e+00
    outer loop
      vertex  -3.000000e+01  3.000000e+01 -6.000000e+00
      vertex   5.740260e+00  1.385820e+01 -6.000000e+00
      vertex   2.926350e+00  1.471179e+01 -6.000000e+00
    endloop
  endfacet
  facet normal -0.000000e+00  0.000000e+00 -1.000000e+00
    outer loop
      vertex  -2.926320e+00  1.471179e+01 -6.000000e+00
      vertex  -5.740230e+00  1.385820e+01 -6.000000e+00
      vertex  -3.000000e+01  3.000000e+01 -6.000000e+00
    endloop
  endfacet
  facet normal  0.000000e+00  0.000000e+00 -1.000000e+00
    outer loop
      vertex  -3.000000e+01  3.000000e+01 -6.000000e+00
      vertex   2.926350e+00  1.471179e+01 -6.000000e+00
      vertex   0.000000e+00  1.500000e+01 -6.000000e+00
    endloop
  endfacet
  facet normal  0.000000e+00  0.000000e+00 -1.000000e+00
    outer loop
      vertex  -3.000000e+01  3.000000e+01 -6.000000e+00
      vertex   0.000000e+00  1.500000e+01 -6.000000e+00
      vertex  -2.926320e+00  1.471179e+01 -6.000000e+00
    endloop
  endfacet
  facet normal  0.000000e+00 -0.000000e+00  1.000000e+00
    outer loop
      vertex   3.000000e+01 -3.000000e+01  6.000000e+00
      vertex   3.000000e+01  3.000000e+01  6.000000e+00
      vertex   1.500000e+01  0.000000e+00  6.000000e+00
    endloop
  endfacet
  facet normal  0.000000e+00  0.000000e+00  1.000000e+00
    outer loop
      vertex   3.000000e+01 -3.000000e+01  6.000000e+00
      vertex   1.500000e+01  0.000000e+00  6.000000e+00
      vertex   1.471179e+01 -2.926350e+00  6.000000e+00
    endloop
  endfacet
  facet normal  0.000000e+00  0.000000e+00  1.000000e+00
    outer loop
      vertex  -1.500000e+01  0.000000e+00  6.000000e+00
      vertex  -3.000000e+01  3.000000e+01  6.000000e+00
      vertex  -3.000000e+01 -3.000000e+01  6.000000e+00
    endloop
  endfacet
  facet normal  0.000000e+00  0.000000e+00  1.000000e+00
    outer loop
      vertex  -1.471179e+01 -2.926350e+00  6.000000e+00
      vertex  -1.500000e+01  0.000000e+00  6.000000e+00
      vertex  -3.000000e+01 -3.000000e+01  6.000000e+00
    endloop
  endfacet
  facet normal  0.000000e+00  0.000000e+00  1.000000e+00
    outer loop
      vertex   3.000000e+01 -3.000000e+01  6.000000e+00
      vertex   1.471179e+01 -2.926350e+00  6.000000e+00
      vertex   1.385820e+01 -5.740260e+00  6.000000e+00
    endloop
  endfacet
  facet normal  0.000000e+00  0.000000e+00  1.000000e+00
    outer loop
      vertex   3.000000e+01 -3.000000e+01  6.000000e+00
      vertex   1.385820e+01 -5.740260e+00  6.000000e+00
      vertex   1.247205e+01 -8.333550e+00  6.000000e+00
    endloop
  endfacet
  facet normal  0.000000e+00  0.000000e+00  1.000000e+00
    outer loop
      vertex  -1.385820e+01 -5.740230e+00  6.000000e+00
      vertex  -1.471179e+01 -2.926350e+00  6.000000e+00
      vertex  -3.000000e+01 -3.000000e+01  6.000000e+00
    endloop
  endfacet
  facet normal  0.000000e+00  0.000000e+00  1.000000e+00
    outer loop
      vertex  -1.247205e+01 -8.333550e+00  6.000000e+00
      vertex  -1.385820e+01 -5.740230e+00  6.000000e+00
      vertex  -3.000000e+01 -3.000000e+01  6.000000e+00
    endloop
  endfacet
  facet normal  0.000000e+00  0.000000e+00  1.000000e+00
    outer loop
      vertex   3.000000e+01 -3.000000e+01  6.000000e+00
      vertex   1.247205e+01 -8.333550e+00  6.000000e+00
      vertex   1.060659e+01 -1.060659e+01  6.000000e+00
    endloop
  endfacet
  facet normal  0.000000e+00  0.000000e+00  1.000000e+00
    outer loop
      vertex   3.000000e+01 -3.000000e+01  6.000000e+00
      vertex   1.060659e+01 -1.060659e+01  6.000000e+00
      vertex   8.333550e+00 -1.247205e+01  6.000000e+00
    endloop
  endfacet
  facet normal  0.000000e+00  0.000000e+00  1.000000e+00
    outer loop
      vertex  -1.060662e+01 -1.060659e+01  6.000000e+00
      vertex  -1.247205e+01 -8.333550e+00  6.000000e+00
      vertex  -3.000000e+01 -3.000000e+01  6.000000e+00
    endloop
  endfacet
  facet normal  0.000000e+00  0.000000e+00  1.000000e+00
    outer loop
      vertex  -8.333550e+00 -1.247205e+01  6.000000e+00
      vertex  -1.060662e+01 -1.060659e+01  6.000000e+00
      vertex  -3.000000e+01 -3.000000e+01  6.000000e+00
    endloop
  endfacet
  facet normal  0.000000e+00  0.000000e+00  1.000000e+00
    outer loop
      vertex   3.000000e+01 -3.000000e+01  6.000000e+00
      vertex   8.333550e+00 -1.247205e+01  6.000000e+00
      vertex   5.740260e+00 -1.385820e+01  6.000000e+00
    endloop
  endfacet
  facet normal  0.000000e+00  0.000000e+00  1.000000e+00
    outer loop
      vertex   3.000000e+01 -3.000000e+01  6.000000e+00
      vertex   5.740260e+00 -1.385820e+01  6.000000e+00
      vertex   2.926350e+00 -1.471179e+01  6.000000e+00
    endloop
  endfacet
  facet normal  0.000000e+00  0.000000e+00  1.000000e+00
    outer loop
      vertex  -5.740260e+00 -1.385820e+01  6.000000e+00
      vertex  -8.333550e+00 -1.247205e+01  6.000000e+00
      vertex  -3.000000e+01 -3.000000e+01  6.000000e+00
    endloop
  endfacet
  facet normal  0.000000e+00  0.000000e+00  1.000000e+00
    outer loop
      vertex  -2.926350e+00 -1.471179e+01  6.000000e+00
      vertex  -5.740260e+00 -1.385820e+01  6.000000e+00
      vertex  -3.000000e+01 -3.000000e+01  6.000000e+00
    endloop
  endfacet
  facet normal  0.000000e+00  0.000000e+00  1.000000e+00
    outer loop
      vertex  -3.000000e+01 -3.000000e+01  6.000000e+00
      vertex   3.000000e+01 -3.000000e+01  6.000000e+00
      vertex   2.926350e+00 -1.471179e+01  6.000000e+00
    endloop
  endfacet
  facet normal  0.000000e+00  0.000000e+00  1.000000e+00
    outer loop
      vertex   0.000000e+00 -1.500000e+01  6.000000e+00
      vertex  -2.926350e+00 -1.471179e+01  6.000000e+00
      vertex  -3.000000e+01 -3.000000e+01  6.000000e+00
    endloop
  endfacet
  facet normal  0.000000e+00  0.000000e+00  1.000000e+00
    outer loop
      vertex   2.926350e+00 -1.471179e+01  6.000000e+00
      vertex   0.000000e+00 -1.500000e+01  6.000000e+00
      vertex  -3.000000e+01 -3.000000e+01  6.000000e+00
    endloop
  endfacet
  facet normal -9.951851e-01  9.801364e-02  0.000000e+00
    outer loop
      vertex   1.471179e+01 -2.926350e+00 -6.000000e+00
      vertex   1.471179e+01 -2.926350e+00  6.000000e+00
      vertex   1.500000e+01  0.000000e+00  6.000000e+00
    endloop
  endfacet
  facet normal -9.951851e-01  9.801364e-02  0.000000e+00
    outer loop
      vertex   1.471179e+01 -2.926350e+00 -6.000000e+00
      vertex   1.500000e+01  0.000000e+00  6.000000e+00
      vertex   1.500000e+01  0.000000e+00 -6.000000e+00
    endloop
  endfacet
  facet normal -7.730062e-01  6.343985e-01  0.000000e+00
    outer loop
      vertex   1.060659e+01 -1.060659e+01 -6.000000e+00
      vertex   1.060659e+01 -1.060659e+01  6.000000e+00
      vertex   1.247205e+01 -8.333550e+00  6.000000e+00
    endloop
  endfacet
  facet normal -7.730062e-01  6.343985e-01  0.000000e+00
    outer loop
      vertex   1.060659e+01 -1.060659e+01 -6.000000e+00
      vertex   1.247205e+01 -8.333550e+00  6.000000e+00
      vertex   1.247205e+01 -8.333550e+00 -6.000000e+00
    endloop
  endfacet
  facet normal -8.819203e-01  4.713986e-01  0.000000e+00
    outer loop
      vertex   1.247205e+01 -8.333550e+00 -6.000000e+00
      vertex   1.247205e+01 -8.333550e+00  6.000000e+00
      vertex   1.385820e+01 -5.740260e+00  6.000000e+00
    endloop
  endfacet
  facet normal -8.819203e-01  4.713986e-01  0.000000e+00
    outer loop
      vertex   1.247205e+01 -8.333550e+00 -6.000000e+00
      vertex   1.385820e+01 -5.740260e+00  6.000000e+00
      vertex   1.385820e+01 -5.740260e+00 -6.000000e+00
    endloop
  endfacet
  facet normal  9.951851e-01 -9.801263e-02  0.000000e+00
    outer loop
      vertex  -1.471179e+01  2.926380e+00 -6.000000e+00
      vertex  -1.471179e+01  2.926380e+00  6.000000e+00
      vertex  -1.500000e+01  0.000000e+00  6.000000e+00
    endloop
  endfacet
  facet normal  9.951851e-01 -9.801263e-02  0.000000e+00
    outer loop
      vertex  -1.471179e+01  2.926380e+00 -6.000000e+00
      vertex  -1.500000e+01  0.000000e+00  6.000000e+00
      vertex  -1.500000e+01  0.000000e+00 -6.000000e+00
    endloop
  endfacet
  facet normal -9.569402e-01 -2.902849e-01  0.000000e+00
    outer loop
      vertex   1.471179e+01  2.926350e+00 -6.000000e+00
      vertex   1.471179e+01  2.926350e+00  6.000000e+00
      vertex   1.385820e+01  5.740260e+00  6.000000e+00
    endloop
  endfacet
  facet normal -9.569402e-01 -2.902849e-01  0.000000e+00
    outer loop
      vertex   1.471179e+01  2.926350e+00 -6.000000e+00
      vertex   1.385820e+01  5.740260e+00  6.000000e+00
      vertex   1.385820e+01  5.740260e+00 -6.000000e+00
    endloop
  endfacet
  facet normal -9.951851e-01 -9.801364e-02  0.000000e+00
    outer loop
      vertex   1.500000e+01  0.000000e+00 -6.000000e+00
      vertex   1.500000e+01  0.000000e+00  6.000000e+00
      vertex   1.471179e+01  2.926350e+00  6.000000e+00
    endloop
  endfacet
  facet normal -9.951851e-01 -9.801364e-02  0.000000e+00
    outer loop
      vertex   1.500000e+01  0.000000e+00 -6.000000e+00
      vertex   1.471179e+01  2.926350e+00  6.000000e+00
      vertex   1.471179e+01  2.926350e+00 -6.000000e+00
    endloop
  endfacet
  facet normal -7.730062e-01 -6.343985e-01  0.000000e+00
    outer loop
      vertex   1.247205e+01  8.333550e+00 -6.000000e+00
      vertex   1.247205e+01  8.333550e+00  6.000000e+00
      vertex   1.060659e+01  1.060659e+01  6.000000e+00
    endloop
  endfacet
  facet normal -7.730062e-01 -6.343985e-01  0.000000e+00
    outer loop
      vertex   1.247205e+01  8.333550e+00 -6.000000e+00
      vertex   1.060659e+01  1.060659e+01  6.000000e+00
      vertex   1.060659e+01  1.060659e+01 -6.000000e+00
    endloop
  endfacet
  facet normal  9.801464e-02 -9.951850e-01  0.000000e+00
    outer loop
      vertex   0.000000e+00  1.500000e+01 -6.000000e+00
      vertex   0.000000e+00  1.500000e+01  6.000000e+00
      vertex  -2.926320e+00  1.471179e+01  6.000000e+00
    endloop
  endfacet
  facet normal  9.801464e-02 -9.951850e-01  0.000000e+00
    outer loop
      vertex   0.000000e+00  1.500000e+01 -6.000000e+00
      vertex  -2.926320e+00  1.471179e+01  6.000000e+00
      vertex  -2.926320e+00  1.471179e+01 -6.000000e+00
    endloop
  endfacet
  facet normal  9.801364e-02  9.951851e-01 -0.000000e+00
    outer loop
      vertex  -2.926350e+00 -1.471179e+01 -6.000000e+00
      vertex  -2.926350e+00 -1.471179e+01  6.000000e+00
      vertex   0.000000e+00 -1.500000e+01  6.000000e+00
    endloop
  endfacet
  facet normal  9.801364e-02  9.951851e-01  0.000000e+00
    outer loop
      vertex  -2.926350e+00 -1.471179e+01 -6.000000e+00
      vertex   0.000000e+00 -1.500000e+01  6.000000e+00
      vertex   0.000000e+00 -1.500000e+01 -6.000000e+00
    endloop
  endfacet
  facet normal  8.819181e-01 -4.714026e-01  0.000000e+00
    outer loop
      vertex  -1.247202e+01  8.333579e+00 -6.000000e+00
      vertex  -1.247202e+01  8.333579e+00  6.000000e+00
      vertex  -1.385820e+01  5.740260e+00  6.000000e+00
    endloop
  endfacet
  facet normal  8.819181e-01 -4.714026e-01  0.000000e+00
    outer loop
      vertex  -1.247202e+01  8.333579e+00 -6.000000e+00
      vertex  -1.385820e+01  5.740260e+00  6.000000e+00
      vertex  -1.385820e+01  5.740260e+00 -6.000000e+00
    endloop
  endfacet
  facet normal -9.801364e-02  9.951851e-01  0.000000e+00
    outer loop
      vertex   0.000000e+00 -1.500000e+01 -6.000000e+00
      vertex   0.000000e+00 -1.500000e+01  6.000000e+00
      vertex   2.926350e+00 -1.471179e+01  6.000000e+00
    endloop
  endfacet
  facet normal -9.801364e-02  9.951851e-01  0.000000e+00
    outer loop
      vertex   0.000000e+00 -1.500000e+01 -6.000000e+00
      vertex   2.926350e+00 -1.471179e+01  6.000000e+00
      vertex   2.926350e+00 -1.471179e+01 -6.000000e+00
    endloop
  endfacet
  facet normal  2.902849e-01 -9.569402e-01  0.000000e+00
    outer loop
      vertex  -2.926320e+00  1.471179e+01 -6.000000e+00
      vertex  -2.926320e+00  1.471179e+01  6.000000e+00
      vertex  -5.740230e+00  1.385820e+01  6.000000e+00
    endloop
  endfacet
  facet normal  2.902849e-01 -9.569402e-01  0.000000e+00
    outer loop
      vertex  -2.926320e+00  1.471179e+01 -6.000000e+00
      vertex  -5.740230e+00  1.385820e+01  6.000000e+00
      vertex  -5.740230e+00  1.385820e+01 -6.000000e+00
    endloop
  endfacet
  facet normal -6.343985e-01 -7.730062e-01  0.000000e+00
    outer loop
      vertex   1.060659e+01  1.060659e+01 -6.000000e+00
      vertex   1.060659e+01  1.060659e+01  6.000000e+00
      vertex   8.333550e+00  1.247205e+01  6.000000e+00
    endloop
  endfacet
  facet normal -6.343985e-01 -7.730062e-01  0.000000e+00
    outer loop
      vertex   1.060659e+01  1.060659e+01 -6.000000e+00
      vertex   8.333550e+00  1.247205e+01  6.000000e+00
      vertex   8.333550e+00  1.247205e+01 -6.000000e+00
    endloop
  endfacet
  facet normal  4.713986e-01  8.819203e-01 -0.000000e+00
    outer loop
      vertex  -8.333550e+00 -1.247205e+01 -6.000000e+00
      vertex  -8.333550e+00 -1.247205e+01  6.000000e+00
      vertex  -5.740260e+00 -1.385820e+01  6.000000e+00
    endloop
  endfacet
  facet normal  4.713986e-01  8.819203e-01  0.000000e+00
    outer loop
      vertex  -8.333550e+00 -1.247205e+01 -6.000000e+00
      vertex  -5.740260e+00 -1.385820e+01  6.000000e+00
      vertex  -5.740260e+00 -1.385820e+01 -6.000000e+00
    endloop
  endfacet
  facet normal -4.713986e-01 -8.819203e-01  0.000000e+00
    outer loop
      vertex   8.333550e+00  1.247205e+01 -6.000000e+00
      vertex   8.333550e+00  1.247205e+01  6.000000e+00
      vertex   5.740260e+00  1.385820e+01  6.000000e+00
    endloop
  endfacet
  facet normal -4.713986e-01 -8.819203e-01  0.000000e+00
    outer loop
      vertex   8.333550e+00  1.247205e+01 -6.000000e+00
      vertex   5.740260e+00  1.385820e+01  6.000000e+00
      vertex   5.740260e+00  1.385820e+01 -6.000000e+00
    endloop
  endfacet
  facet normal -6.343985e-01  7.730062e-01  0.000000e+00
    outer loop
      vertex   8.333550e+00 -1.247205e+01 -6.000000e+00
      vertex   8.333550e+00 -1.247205e+01  6.000000e+00
      vertex   1.060659e+01 -1.060659e+01  6.000000e+00
    endloop
  endfacet
  facet normal -6.343985e-01  7.730062e-01  0.000000e+00
    outer loop
      vertex   8.333550e+00 -1.247205e+01 -6.000000e+00
      vertex   1.060659e+01 -1.060659e+01  6.000000e+00
      vertex   1.060659e+01 -1.060659e+01 -6.000000e+00
    endloop
  endfacet
  facet normal  6.343921e-01 -7.730114e-01  0.000000e+00
    outer loop
      vertex  -8.333550e+00  1.247205e+01 -6.000000e+00
      vertex  -8.333550e+00  1.247205e+01  6.000000e+00
      vertex  -1.060659e+01  1.060662e+01  6.000000e+00
    endloop
  endfacet
  facet normal  6.343921e-01 -7.730114e-01  0.000000e+00
    outer loop
      vertex  -8.333550e+00  1.247205e+01 -6.000000e+00
      vertex  -1.060659e+01  1.060662e+01  6.000000e+00
      vertex  -1.060659e+01  1.060662e+01 -6.000000e+00
    endloop
  endfacet
  facet normal  9.569394e-01 -2.902877e-01  0.000000e+00
    outer loop
      vertex  -1.385820e+01  5.740260e+00 -6.000000e+00
      vertex  -1.385820e+01  5.740260e+00  6.000000e+00
      vertex  -1.471179e+01  2.926380e+00  6.000000e+00
    endloop
  endfacet
  facet normal  9.569394e-01 -2.902877e-01  0.000000e+00
    outer loop
      vertex  -1.385820e+01  5.740260e+00 -6.000000e+00
      vertex  -1.471179e+01  2.926380e+00  6.000000e+00
      vertex  -1.471179e+01  2.926380e+00 -6.000000e+00
    endloop
  endfacet
  facet normal  0.000000e+00  0.000000e+00 -1.000000e+00
    outer loop
      vertex   1.471179e+01 -2.926350e+00 -6.000000e+00
      vertex   1.500000e+01  0.000000e+00 -6.000000e+00
      vertex   3.000000e+01  3.000000e+01 -6.000000e+00
    endloop
  endfacet
  facet normal  0.000000e+00  0.000000e+00 -1.000000e+00
    outer loop
      vertex  -3.000000e+01 -3.000000e+01 -6.000000e+00
      vertex  -3.000000e+01  3.000000e+01 -6.000000e+00
      vertex  -1.500000e+01  0.000000e+00 -6.000000e+00
    endloop
  endfacet
  facet normal  0.000000e+00  0.000000e+00 -1.000000e+00
    outer loop
      vertex  -3.000000e+01 -3.000000e+01 -6.000000e+00
      vertex  -1.500000e+01  0.000000e+00 -6.000000e+00
      vertex  -1.471179e+01 -2.926350e+00 -6.000000e+00
    endloop
  endfacet
  facet normal  0.000000e+00  0.000000e+00 -1.000000e+00
    outer loop
      vertex   1.471179e+01 -2.926350e+00 -6.000000e+00
      vertex   3.000000e+01  3.000000e+01 -6.000000e+00
      vertex   3.000000e+01 -3.000000e+01 -6.000000e+00
    endloop
  endfacet
  facet normal  0.000000e+00  0.000000e+00 -1.000000e+00
    outer loop
      vertex   1.385820e+01 -5.740260e+00 -6.000000e+00
      vertex   1.471179e+01 -2.926350e+00 -6.000000e+00
      vertex   3.000000e+01 -3.000000e+01 -6.000000e+00
    endloop
  endfacet
  facet normal  0.000000e+00  0.000000e+00 -1.000000e+00
    outer loop
      vertex  -3.000000e+01 -3.000000e+01 -6.000000e+00
      vertex  -1.471179e+01 -2.926350e+00 -6.000000e+00
      vertex  -1.385820e+01 -5.740230e+00 -6.000000e+00
    endloop
  endfacet
  facet normal  0.000000e+00  0.000000e+00 -1.000000e+00
    outer loop
      vertex  -3.000000e+01 -3.000000e+01 -6.000000e+00
      vertex  -1.385820e+01 -5.740230e+00 -6.000000e+00
      vertex  -1.247205e+01 -8.333550e+00 -6.000000e+00
    endloop
  endfacet
  facet normal  0.000000e+00  0.000000e+00 -1.000000e+00
    outer loop
      vertex   1.247205e+01 -8.333550e+00 -6.000000e+00
      vertex   1.385820e+01 -5.740260e+00 -6.000000e+00
      vertex   3.000000e+01 -3.000000e+01 -6.000000e+00
    endloop
  endfacet
  facet normal  0.000000e+00  0.000000e+00 -1.000000e+00
    outer loop
      vertex   1.060659e+01 -1.060659e+01 -6.000000e+00
      vertex   1.247205e+01 -8.333550e+00 -6.000000e+00
      vertex   3.000000e+01 -3.000000e+01 -6.000000e+00
    endloop
  endfacet
  facet normal  0.000000e+00  0.000000e+00 -1.000000e+00
    outer loop
      vertex  -3.000000e+01 -3.000000e+01 -6.000000e+00
      vertex  -1.247205e+01 -8.333550e+00 -6.000000e+00
      vertex  -1.060662e+01 -1.060659e+01 -6.000000e+00
    endloop
  endfacet
  facet normal  0.000000e+00  0.000000e+00 -1.000000e+00
    outer loop
      vertex  -3.000000e+01 -3.000000e+01 -6.000000e+00
      vertex  -1.060662e+01 -1.060659e+01 -6.000000e+00
      vertex  -8.333550e+00 -1.247205e+01 -6.000000e+00
    endloop
  endfacet
  facet normal  0.000000e+00  0.000000e+00 -1.000000e+00
    outer loop
      vertex   8.333550e+00 -1.247205e+01 -6.000000e+00
      vertex   1.060659e+01 -1.060659e+01 -6.000000e+00
      vertex   3.000000e+01 -3.000000e+01 -6.000000e+00
    endloop
  endfacet
  facet normal  0.000000e+00  0.000000e+00 -1.000000e+00
    outer loop
      vertex   5.740260e+00 -1.385820e+01 -6.000000e+00
      vertex   8.333550e+00 -1.247205e+01 -6.000000e+00
      vertex   3.000000e+01 -3.000000e+01 -6.000000e+00
    endloop
  endfacet
  facet normal  0.000000e+00  0.000000e+00 -1.000000e+00
    outer loop
      vertex  -3.000000e+01 -3.000000e+01 -6.000000e+00
      vertex  -8.333550e+00 -1.247205e+01 -6.000000e+00
      vertex  -5.740260e+00 -1.385820e+01 -6.000000e+00
    endloop
  endfacet
  facet normal  0.000000e+00  0.000000e+00 -1.000000e+00
    outer loop
      vertex  -3.000000e+01 -3.000000e+01 -6.000000e+00
      vertex  -5.740260e+00 -1.385820e+01 -6.000000e+00
      vertex  -2.926350e+00 -1.471179e+01 -6.000000e+00
    endloop
  endfacet
  facet normal  0.000000e+00 -0.000000e+00 -1.000000e+00
    outer loop
      vertex   5.740260e+00 -1.385820e+01 -6.000000e+00
      vertex   3.000000e+01 -3.000000e+01 -6.000000e+00
      vertex  -3.000000e+01 -3.000000e+01 -6.000000e+00
    endloop
  endfacet
  facet normal  0.000000e+00 -0.000000e+00 -1.000000e+00
    outer loop
      vertex   2.926350e+00 -1.471179e+01 -6.000000e+00
      vertex   5.740260e+00 -1.385820e+01 -6.000000e+00
      vertex  -3.000000e+01 -3.000000e+01 -6.000000e+00
    endloop
  endfacet
  facet normal  0.000000e+00  0.000000e+00 -1.000000e+00
    outer loop
      vertex  -3.000000e+01 -3.000000e+01 -6.000000e+00
      vertex  -2.926350e+00 -1.471179e+01 -6.000000e+00
      vertex   0.000000e+00 -1.500000e+01 -6.000000e+00
    endloop
  endfacet
  facet normal  0.000000e+00 -0.000000e+00 -1.000000e+00
    outer loop
      vertex   0.000000e+00 -1.500000e+01 -6.000000e+00
      vertex   2.926350e+00 -1.471179e+01 -6.000000e+00
      vertex  -3.000000e+01 -3.000000e+01 -6.000000e+00
    endloop
  endfacet
  facet normal -4.713986e-01  8.819203e-01  0.000000e+00
    outer loop
      vertex   5.740260e+00 -1.385820e+01 -6.000000e+00
      vertex   5.740260e+00 -1.385820e+01  6.000000e+00
      vertex   8.333550e+00 -1.247205e+01  6.000000e+00
    endloop
  endfacet
  facet normal -4.713986e-01  8.819203e-01  0.000000e+00
    outer loop
      vertex   5.740260e+00 -1.385820e+01 -6.000000e+00
      vertex   8.333550e+00 -1.247205e+01  6.000000e+00
      vertex   8.333550e+00 -1.247205e+01 -6.000000e+00
    endloop
  endfacet
  facet normal  6.343933e-01  7.730106e-01 -0.000000e+00
    outer loop
      vertex  -1.060662e+01 -1.060659e+01 -6.000000e+00
      vertex  -1.060662e+01 -1.060659e+01  6.000000e+00
      vertex  -8.333550e+00 -1.247205e+01  6.000000e+00
    endloop
  endfacet
  facet normal  6.343933e-01  7.730106e-01  0.000000e+00
    outer loop
      vertex  -1.060662e+01 -1.060659e+01 -6.000000e+00
      vertex  -8.333550e+00 -1.247205e+01  6.000000e+00
      vertex  -8.333550e+00 -1.247205e+01 -6.000000e+00
    endloop
  endfacet
  facet normal  8.819225e-01  4.713943e-01 -0.000000e+00
    outer loop
      vertex  -1.385820e+01 -5.740230e+00 -6.000000e+00
      vertex  -1.385820e+01 -5.740230e+00  6.000000e+00
      vertex  -1.247205e+01 -8.333550e+00  6.000000e+00
    endloop
  endfacet
  facet normal  8.819225e-01  4.713943e-01  0.000000e+00
    outer loop
      vertex  -1.385820e+01 -5.740230e+00 -6.000000e+00
      vertex  -1.247205e+01 -8.333550e+00  6.000000e+00
      vertex  -1.247205e+01 -8.333550e+00 -6.000000e+00
    endloop
  endfacet
  facet normal -9.801364e-02 -9.951851e-01  0.000000e+00
    outer loop
      vertex   2.926350e+00  1.471179e+01 -6.000000e+00
      vertex   2.926350e+00  1.471179e+01  6.000000e+00
      vertex   0.000000e+00  1.500000e+01  6.000000e+00
    endloop
  endfacet
  facet normal -9.801364e-02 -9.951851e-01  0.000000e+00
    outer loop
      vertex   2.926350e+00  1.471179e+01 -6.000000e+00
      vertex   0.000000e+00  1.500000e+01  6.000000e+00
      vertex   0.000000e+00  1.500000e+01 -6.000000e+00
    endloop
  endfacet
  facet normal -8.819203e-01 -4.713986e-01  0.000000e+00
    outer loop
      vertex   1.385820e+01  5.740260e+00 -6.000000e+00
      vertex   1.385820e+01  5.740260e+00  6.000000e+00
      vertex   1.247205e+01  8.333550e+00  6.000000e+00
    endloop
  endfacet
  facet normal -8.819203e-01 -4.713986e-01  0.000000e+00
    outer loop
      vertex   1.385820e+01  5.740260e+00 -6.000000e+00
      vertex   1.247205e+01  8.333550e+00  6.000000e+00
      vertex   1.247205e+01  8.333550e+00 -6.000000e+00
    endloop
  endfacet
  facet normal  9.951851e-01  9.801364e-02 -0.000000e+00
    outer loop
      vertex  -1.500000e+01  0.000000e+00 -6.000000e+00
      vertex  -1.500000e+01  0.000000e+00  6.000000e+00
      vertex  -1.471179e+01 -2.926350e+00  6.000000e+00
    endloop
  endfacet
  facet normal  9.951851e-01  9.801364e-02  0.000000e+00
    outer loop
      vertex  -1.500000e+01  0.000000e+00 -6.000000e+00
      vertex  -1.471179e+01 -2.926350e+00  6.000000e+00
      vertex  -1.471179e+01 -2.926350e+00 -6.000000e+00
    endloop
  endfacet
  facet normal -9.569402e-01  2.902849e-01  0.000000e+00
    outer loop
      vertex   1.385820e+01 -5.740260e+00 -6.000000e+00
      vertex   1.385820e+01 -5.740260e+00  6.000000e+00
      vertex   1.471179e+01 -2.926350e+00  6.000000e+00
    endloop
  endfacet
  facet normal -9.569402e-01  2.902849e-01  0.000000e+00
    outer loop
      vertex   1.385820e+01 -5.740260e+00 -6.000000e+00
      vertex   1.471179e+01 -2.926350e+00  6.000000e+00
      vertex   1.471179e+01 -2.926350e+00 -6.000000e+00
    endloop
  endfacet
  facet normal  2.902849e-01  9.569402e-01 -0.000000e+00
    outer loop
      vertex  -5.740260e+00 -1.385820e+01 -6.000000e+00
      vertex  -5.740260e+00 -1.385820e+01  6.000000e+00
      vertex  -2.926350e+00 -1.471179e+01  6.000000e+00
    endloop
  endfacet
  facet normal  2.902849e-01  9.569402e-01  0.000000e+00
    outer loop
      vertex  -5.740260e+00 -1.385820e+01 -6.000000e+00
      vertex  -2.926350e+00 -1.471179e+01  6.000000e+00
      vertex  -2.926350e+00 -1.471179e+01 -6.000000e+00
    endloop
  endfacet
  facet normal  4.713943e-01 -8.819225e-01  0.000000e+00
    outer loop
      vertex  -5.740230e+00  1.385820e+01 -6.000000e+00
      vertex  -5.740230e+00  1.385820e+01  6.000000e+00
      vertex  -8.333550e+00  1.247205e+01  6.000000e+00
    endloop
  endfacet
  facet normal  4.713943e-01 -8.819225e-01  0.000000e+00
    outer loop
      vertex  -5.740230e+00  1.385820e+01 -6.000000e+00
      vertex  -8.333550e+00  1.247205e+01  6.000000e+00
      vertex  -8.333550e+00  1.247205e+01 -6.000000e+00
    endloop
  endfacet
  facet normal -2.902849e-01 -9.569402e-01  0.000000e+00
    outer loop
      vertex   5.740260e+00  1.385820e+01 -6.000000e+00
      vertex   5.740260e+00  1.385820e+01  6.000000e+00
      vertex   2.926350e+00  1.471179e+01  6.000000e+00
    endloop
  endfacet
  facet normal -2.902849e-01 -9.569402e-01  0.000000e+00
    outer loop
      vertex   5.740260e+00  1.385820e+01 -6.000000e+00
      vertex   2.926350e+00  1.471179e+01  6.000000e+00
      vertex   2.926350e+00  1.471179e+01 -6.000000e+00
    endloop
  endfacet
  facet normal -2.902849e-01  9.569402e-01  0.000000e+00
    outer loop
      vertex   2.926350e+00 -1.471179e+01 -6.000000e+00
      vertex   2.926350e+00 -1.471179e+01  6.000000e+00
      vertex   5.740260e+00 -1.385820e+01  6.000000e+00
    endloop
  endfacet
  facet normal -2.902849e-01  9.569402e-01  0.000000e+00
    outer loop
      vertex   2.926350e+00 -1.471179e+01 -6.000000e+00
      vertex   5.740260e+00 -1.385820e+01  6.000000e+00
      vertex   5.740260e+00 -1.385820e+01 -6.000000e+00
    endloop
  endfacet
  facet normal  9.569394e-01  2.902877e-01 -0.000000e+00
    outer loop
      vertex  -1.471179e+01 -2.926350e+00 -6.000000e+00
      vertex  -1.471179e+01 -2.926350e+00  6.000000e+00
      vertex  -1.385820e+01 -5.740230e+00  6.000000e+00
    endloop
  endfacet
  facet normal  9.569394e-01  2.902877e-01  0.000000e+00
    outer loop
      vertex  -1.471179e+01 -2.926350e+00 -6.000000e+00
      vertex  -1.385820e+01 -5.740230e+00  6.000000e+00
      vertex  -1.385820e+01 -5.740230e+00 -6.000000e+00
    endloop
  endfacet
  facet normal  7.730117e-01 -6.343918e-01  0.000000e+00
    outer loop
      vertex  -1.060659e+01  1.060662e+01 -6.000000e+00
      vertex  -1.060659e+01  1.060662e+01  6.000000e+00
      vertex  -1.247202e+01  8.333579e+00  6.000000e+00
    endloop
  endfacet
  facet normal  7.730117e-01 -6.343918e-01  0.000000e+00
    outer loop
      vertex  -1.060659e+01  1.060662e+01 -6.000000e+00
      vertex  -1.247202e+01  8.333579e+00  6.000000e+00
      vertex  -1.247202e+01  8.333579e+00 -6.000000e+00
    endloop
  endfacet
  facet normal  0.000000e+00  0.000000e+00  1.000000e+00
    outer loop
      vertex  -3.000000e+01  3.000000e+01  6.000000e+00
      vertex  -1.500000e+01  0.000000e+00  6.000000e+00
      vertex  -1.471179e+01  2.926380e+00  6.000000e+00
    endloop
  endfacet
  facet normal  0.000000e+00  0.000000e+00  1.000000e+00
    outer loop
      vertex  -3.000000e+01  3.000000e+01  6.000000e+00
      vertex  -1.471179e+01  2.926380e+00  6.000000e+00
      vertex  -1.385820e+01  5.740260e+00  6.000000e+00
    endloop
  endfacet
  facet normal -0.000000e+00  0.000000e+00  1.000000e+00
    outer loop
      vertex   1.471179e+01  2.926350e+00  6.000000e+00
      vertex   1.500000e+01  0.000000e+00  6.000000e+00
      vertex   3.000000e+01  3.000000e+01  6.000000e+00
    endloop
  endfacet
  facet normal -0.000000e+00  0.000000e+00  1.000000e+00
    outer loop
      vertex   1.385820e+01  5.740260e+00  6.000000e+00
      vertex   1.471179e+01  2.926350e+00  6.000000e+00
      vertex   3.000000e+01  3.000000e+01  6.000000e+00
    endloop
  endfacet
  facet normal  0.000000e+00  0.000000e+00  1.000000e+00
    outer loop
      vertex  -3.000000e+01  3.000000e+01  6.000000e+00
      vertex  -1.385820e+01  5.740260e+00  6.000000e+00
      vertex  -1.247202e+01  8.333579e+00  6.000000e+00
    endloop
  endfacet
  facet normal  0.000000e+00  0.000000e+00  1.000000e+00
    outer loop
      vertex  -3.000000e+01  3.000000e+01  6.000000e+00
      vertex  -1.247202e+01  8.333579e+00  6.000000e+00
      vertex  -1.060659e+01  1.060662e+01  6.000000e+00
    endloop
  endfacet
  facet normal -0.000000e+00  0.000000e+00  1.000000e+00
    outer loop
      vertex   1.247205e+01  8.333550e+00  6.000000e+00
      vertex   1.385820e+01  5.740260e+00  6.000000e+00
      vertex   3.000000e+01  3.000000e+01  6.000000e+00
    endloop
  endfacet
  facet normal -0.000000e+00  0.000000e+00  1.000000e+00
    outer loop
      vertex   1.060659e+01  1.060659e+01  6.000000e+00
      vertex   1.247205e+01  8.333550e+00  6.000000e+00
      vertex   3.000000e+01  3.000000e+01  6.000000e+00
    endloop
  endfacet
  facet normal  0.000000e+00  0.000000e+00  1.000000e+00
    outer loop
      vertex  -3.000000e+01  3.000000e+01  6.000000e+00
      vertex  -1.060659e+01  1.060662e+01  6.000000e+00
      vertex  -8.333550e+00  1.247205e+01  6.000000e+00
    endloop
  endfacet
  facet normal  0.000000e+00  0.000000e+00  1.000000e+00
    outer loop
      vertex  -3.000000e+01  3.000000e+01  6.000000e+00
      vertex  -8.333550e+00  1.247205e+01  6.000000e+00
      vertex  -5.740230e+00  1.385820e+01  6.000000e+00
    endloop
  endfacet
  facet normal -0.000000e+00  0.000000e+00  1.000000e+00
    outer loop
      vertex   8.333550e+00  1.247205e+01  6.000000e+00
      vertex   1.060659e+01  1.060659e+01  6.000000e+00
      vertex   3.000000e+01  3.000000e+01  6.000000e+00
    endloop
  endfacet
  facet normal -0.000000e+00  0.000000e+00  1.000000e+00
    outer loop
      vertex   5.740260e+00  1.385820e+01  6.000000e+00
      vertex   8.333550e+00  1.247205e+01  6.000000e+00
      vertex   3.000000e+01  3.000000e+01  6.000000e+00
    endloop
  endfacet
  facet normal  0.000000e+00  0.000000e+00  1.000000e+00
    outer loop
      vertex   3.000000e+01  3.000000e+01  6.000000e+00
      vertex  -3.000000e+01  3.000000e+01  6.000000e+00
      vertex  -5.740230e+00  1.385820e+01  6.000000e+00
    endloop
  endfacet
  facet normal  0.000000e+00  0.000000e+00  1.000000e+00
    outer loop
      vertex   3.000000e+01  3.000000e+01  6.000000e+00
      vertex  -5.740230e+00  1.385820e+01  6.000000e+00
      vertex  -2.926320e+00  1.471179e+01  6.000000e+00
    endloop
  endfacet
  facet normal -0.000000e+00  0.000000e+00  1.000000e+00
    outer loop
      vertex   2.926350e+00  1.471179e+01  6.000000e+00
      vertex   5.740260e+00  1.385820e+01  6.000000e+00
      vertex   3.000000e+01  3.000000e+01  6.000000e+00
    endloop
  endfacet
  facet normal  0.000000e+00  0.000000e+00  1.000000e+00
    outer loop
      vertex   3.000000e+01  3.000000e+01  6.000000e+00
      vertex  -2.926320e+00  1.471179e+01  6.000000e+00
      vertex   0.000000e+00  1.500000e+01  6.000000e+00
    endloop
  endfacet
  facet normal -0.000000e+00  0.000000e+00  1.000000e+00
    outer loop
      vertex   0.000000e+00  1.500000e+01  6.000000e+00
      vertex   2.926350e+00  1.471179e+01  6.000000e+00
      vertex   3.000000e+01  3.000000e+01  6.000000e+00
    endloop
  endfacet
  facet normal  7.730114e-01  6.343921e-01 -0.000000e+00
    outer loop
      vertex  -1.247205e+01 -8.333550e+00 -6.000000e+00
      vertex  -1.247205e+01 -8.333550e+00  6.000000e+00
      vertex  -1.060662e+01 -1.060659e+01  6.000000e+00
    endloop
  endfacet
  facet normal  7.730114e-01  6.343921e-01  0.000000e+00
    outer loop
      vertex  -1.247205e+01 -8.333550e+00 -6.000000e+00
      vertex  -1.060662e+01 -1.060659e+01  6.000000e+00
      vertex  -1.060662e+01 -1.060659e+01 -6.000000e+00
    endloop
  endfacet
endsolid vcg
